<?xml version="1.0" encoding="UTF-8"?>
<svg width="60" height="60" preserveAspectRatio="xMidYMid" version="1.1" viewBox="0 0 60 60" xmlns="http://www.w3.org/2000/svg" xmlns:cc="http://creativecommons.org/ns#" xmlns:dc="http://purl.org/dc/elements/1.1/" xmlns:rdf="http://www.w3.org/1999/02/22-rdf-syntax-ns#">
 <metadata>
  <rdf:RDF>
   <cc:Work rdf:about="">
    <dc:format>image/svg+xml</dc:format>
    <dc:type rdf:resource="http://purl.org/dc/dcmitype/StillImage"/>
    <dc:title/>
   </cc:Work>
  </rdf:RDF>
 </metadata>
 <path id='advantages_icon' d="m7 58c-1.1-1.1-2-2.8842-2-3.9648s-0.89469-2.4436-1.9882-3.0289c-2.4958-1.3357-3.5212-5.186-2.0922-7.856 0.79541-1.4862 0.77502-2.7265-0.07548-4.5931-0.86854-1.9062-0.8793-3.1844-0.04231-5.0214 0.7041-1.5453 0.76396-2.6861 0.16052-3.059-1.7324-1.0707-1.0103-4.2937 1.3838-6.177 1.2904-1.015 2.6475-3.4102 3.0159-5.3226 1.7663-9.1697 8.9855-16.122 18.888-18.189 14.297-2.985 27.875 5.1425 30.388 18.189 0.36838 1.9124 1.7255 4.3076 3.0159 5.3226 2.3941 1.8832 3.1162 5.1063 1.3838 6.177-0.60344 0.37295-0.54359 1.5137 0.16052 3.059 0.837 1.837 0.82623 3.1152-0.04231 5.0214-0.85051 1.8667-0.87089 3.1069-0.07548 4.5931 1.429 2.67 0.40355 6.5203-2.0922 7.856-1.0935 0.58523-1.9882 1.9482-1.9882 3.0289s-0.9 2.8648-2 3.9648c-1.873 1.873-3.3333 2-23 2s-21.127-0.12698-23-2zm44.8-1.2c0.66-0.66 1.2-2.01 1.2-3 0-1.6812-1.5185-1.8-23-1.8-21.481 0-23 0.11884-23 1.8 0 3.8945 1.6729 4.2 23 4.2 14.689 0 20.944-0.34434 21.8-1.2zm-14.612-10.814-7.3123-3.9859h-12.738c-12.98 0-15.138 0.57025-15.138 4 0 3.6618 1.9068 4.0003 22.45 3.9859l20.05-0.01407-7.3123-3.9859zm19.772 2.5621c1.5531-1.8714 1.0122-4.5362-1.2042-5.932-1.4451-0.91004-2.4713-0.3712-5.9853 3.1428l-4.2412 4.2412h5.1128c3.2496 0 5.552-0.52912 6.3179-1.452zm-9.4601-3.548 2.8742-3-15.874 0.0164 5 2.9415c2.75 1.6178 5.0283 2.9641 5.0629 2.9918 0.0346 0.02763 1.3563-1.2997 2.9371-2.9497zm9.8865-7.25c2.5939-4.1144-4.092-7.4705-8.5968-4.3152-2.8509 1.9968-6.7266 1.9982-9.5747 0.0033-1.8911-1.3246-2.7609-1.37-5.7225-0.29911-2.813 1.0172-4.1719 1.0172-6.9849 0-2.9616-1.0709-3.8314-1.0255-5.7225 0.29911-2.8264 1.9796-7.1681 2.0103-8.785 0.06195-1.4897-1.795-7.1133-1.9867-8.8-0.3-0.66 0.66-1.2 1.92-1.2 2.8 0 3.8298 1.5904 4.041 28.358 3.7662 23.43-0.24056 26.032-0.4346 27.029-2.0162zm-36.818-7.2273c2.4678-2.4678 2.4848-2.4697 4.4545-0.5 2.5381 2.5381 7.4164 2.5381 9.9545 0 1.9697-1.9697 1.9868-1.9678 4.4545 0.5 2.9606 2.9606 5.5299 3.1386 8.6647 0.60023 1.6979-1.3749 3.3327-1.741 6.1108-1.3683 3.0002 0.40241 3.7927 0.17961 3.7927-1.0663 0-0.86623-1.0001-2.2755-2.2225-3.1317-1.8596-1.3025-6.0875-1.5567-25.889-1.5567-21.482 0-23.876 0.1697-25.937 1.838-3.2098 2.5991-1.6979 4.5254 3.0517 3.8883 2.8552-0.38297 4.1278-0.054 5.3606 1.3857 2.2134 2.5851 5.2478 2.3671 8.2042-0.58936zm32.432-10.055c0-2.5073-2.935-8.7686-5.2977-11.302-4.3336-4.6459-9.6125-6.62-17.702-6.62-10.917 0-17.87 4.1118-21.452 12.685-2.9759 7.1223-4.0973 6.7685 21.452 6.7685 19.992 0 23-0.20037 23-1.5321zm-37-9.4679c0-0.55 0.45-1 1-1s1 0.45 1 1-0.45 1-1 1-1-0.45-1-1zm14 0c0-0.55 0.45-1 1-1s1 0.45 1 1-0.45 1-1 1-1-0.45-1-1zm12 0c0-0.55 0.45-1 1-1s1 0.45 1 1-0.45 1-1 1-1-0.45-1-1zm-20-4c0-0.55 0.45-1 1-1s1 0.45 1 1-0.45 1-1 1-1-0.45-1-1zm14 0c0-0.55 0.45-1 1-1s1 0.45 1 1-0.45 1-1 1-1-0.45-1-1z" fill="#f57567"/>
</svg>
