<?xml version="1.0" encoding="UTF-8" standalone="no"?>
<svg
   xmlns:dc="http://purl.org/dc/elements/1.1/"
   xmlns:cc="http://creativecommons.org/ns#"
   xmlns:rdf="http://www.w3.org/1999/02/22-rdf-syntax-ns#"
   xmlns:svg="http://www.w3.org/2000/svg"
   xmlns="http://www.w3.org/2000/svg"
   xmlns:sodipodi="http://sodipodi.sourceforge.net/DTD/sodipodi-0.dtd"
   xmlns:inkscape="http://www.inkscape.org/namespaces/inkscape"
   preserveAspectRatio="xMidYMid"
   width="74.999992"
   height="65.000999"
   viewBox="0 0 74.999992 65.000999"
   version="1.1"
   id="svg22"
   sodipodi:docname="Logo.svg"
   inkscape:version="0.92.4 (5da689c313, 2019-01-14)"
   shape-rendering="crispEdges">
  <metadata
     id="metadata28">
    <rdf:RDF>
      <cc:Work
         rdf:about="">
        <dc:format>image/svg+xml</dc:format>
        <dc:type
           rdf:resource="http://purl.org/dc/dcmitype/StillImage" />
        <dc:title></dc:title>
      </cc:Work>
    </rdf:RDF>
  </metadata>
  <defs
     id="defs26" />
  <sodipodi:namedview
     pagecolor="#ffffff"
     bordercolor="#666666"
     borderopacity="1"
     objecttolerance="10"
     gridtolerance="10"
     guidetolerance="10"
     inkscape:pageopacity="0"
     inkscape:pageshadow="2"
     inkscape:window-width="1366"
     inkscape:window-height="706"
     id="namedview24"
     showgrid="false"
     inkscape:zoom="3.5158921"
     inkscape:cx="39.796188"
     inkscape:cy="19.556163"
     inkscape:window-x="-8"
     inkscape:window-y="-8"
     inkscape:window-maximized="1"
     inkscape:current-layer="layer2"
     fit-margin-top="0"
     fit-margin-left="0"
     fit-margin-right="0"
     fit-margin-bottom="0" />
  <g
     inkscape:groupmode="layer"
     id="layer1"
     inkscape:label="Layer 1"
     transform="translate(-28.463075,-23.485086)" />
  <g
     inkscape:groupmode="layer"
     id="layer2"
     inkscape:label="Layer 2"
     transform="translate(-28.463075,-23.485086)">
    <path
       style="fill:#ffffff;stroke-width:1.12149882"
       d="m 40.853151,88.486086 c -0.748366,0 -1.360668,-0.5788 -1.360668,-1.28594 0,-0.70712 5.492704,-6.689581 12.205995,-13.294018 L 63.904479,61.89814 56.536391,54.221161 c -7.086279,-7.383309 -7.535198,-7.653746 -11.737286,-7.070995 -4.10825,0.569727 -4.726564,0.241036 -10.352617,-5.503693 -3.290878,-3.360303 -5.983413,-6.512016 -5.983413,-7.003831 0,-0.491864 0.572447,-0.894223 1.272104,-0.894223 0.699657,0 3.892914,2.562748 7.096118,5.694986 3.486953,3.409713 6.462721,5.441635 7.415698,5.063502 1.137605,-0.451327 -0.100181,-2.285886 -4.338762,-6.430618 -3.26175,-3.189501 -5.930454,-6.750991 -5.930454,-7.914409 0,-1.163438 0.389198,-2.115346 0.864883,-2.115346 0.475686,0 3.560751,2.822418 6.855705,6.272039 3.294953,3.449621 6.380024,6.272028 6.85571,6.272028 0.475686,0 0.864877,-0.76339 0.864877,-1.696463 0,-0.933038 -2.481616,-4.118129 -5.514704,-7.07796 -3.033087,-2.95981 -5.514704,-6.045156 -5.514704,-6.856299 0,-0.811131 0.389198,-1.474793 0.864878,-1.474793 0.475686,0 3.513513,2.772959 6.750728,6.162134 5.291501,5.539848 5.839361,6.573781 5.425529,10.238844 -0.424761,3.761842 0.11893,4.671105 7.037903,11.770039 l 7.498221,7.693225 8.699495,-8.941916 c 8.2511,-8.481068 8.671566,-9.157228 8.157717,-13.11823 -0.492914,-3.799626 -0.08623,-4.610446 4.509293,-8.990202 2.93072,-2.793111 6.132278,-4.813894 7.626715,-4.813894 1.416608,0 3.909313,1.439288 5.539345,3.198394 1.63004,1.759139 2.9637,4.392505 2.9637,5.851922 0,1.624066 -1.92403,4.642809 -4.959647,7.781397 -4.579062,4.734484 -5.28106,5.074816 -9.148228,4.435474 -4.060776,-0.671375 -4.450201,-0.420405 -12.76279,8.224943 l -8.574216,8.917462 12.20774,12.00976 c 6.714249,6.605327 12.207733,12.588588 12.207733,13.295708 0,0.70714 -0.612299,1.28594 -1.360663,1.28594 -0.748365,0 -6.704243,-5.50786 -13.235292,-12.239515 L 65.963078,64.007034 54.088449,76.246571 C 47.557402,82.978226 41.601518,88.486086 40.853151,88.486086 Z M 90.783478,41.73098 c 1.276226,0 3.969509,-1.759185 5.98507,-3.909273 2.906605,-3.100631 3.518262,-4.512373 2.95691,-6.824828 -0.450877,-1.857464 -1.731142,-3.181142 -3.527619,-3.647335 -2.236577,-0.580399 -3.601988,0.05202 -6.600848,3.057235 -2.079537,2.083951 -3.780974,4.868639 -3.780974,6.188165 0,1.319535 0.59559,3.014959 1.323529,3.767579 0.727944,0.752651 2.367706,1.368457 3.643932,1.368457 z M 65.68734,85.988966 61.55131,86.343056 V 81.14254 c 0,-4.672178 0.258715,-5.200513 2.546547,-5.200513 1.400605,0 3.428477,0.666751 4.506384,1.481705 1.303867,0.985742 1.835878,2.607958 1.589483,4.846524 -0.328308,2.98279 -0.839872,3.40494 -4.506384,3.71871 z m -0.962256,-0.92405 c 0.532343,0 1.585762,-0.7697 2.340936,-1.71066 1.095425,-1.36459 1.095425,-2.056253 0,-3.420921 -0.755174,-0.940814 -1.808593,-1.710582 -2.340936,-1.710582 -0.532337,0 -0.96789,1.539494 -0.96789,3.421163 0,1.88152 0.435553,3.421 0.96789,3.421 z M 85.871204,66.81907 c -1.647995,0 -3.327246,-0.342077 -3.731653,-0.760213 -0.404413,-0.418163 -0.735296,-2.7274 -0.735296,-5.131662 0,-2.404295 0.496324,-4.37142 1.102942,-4.37142 0.606616,0 1.102943,1.796094 1.102943,3.991256 0,2.787611 0.498947,3.991306 1.654413,3.991306 1.155451,0 1.654402,-1.203695 1.654402,-3.991306 0,-2.787521 0.498951,-3.991256 1.654418,-3.991256 0.984857,0 1.648312,1.038411 1.639348,2.5658 -0.0083,1.411218 -0.314328,3.720483 -0.680113,5.131687 -0.482741,1.862457 -1.486412,2.565808 -3.661404,2.565808 z M 43.352779,65.67872 c -1.225488,0 -1.654412,-1.33043 -1.654412,-5.131689 0,-3.801218 0.428924,-5.131638 1.654412,-5.131638 1.225489,0 1.654413,1.33042 1.654413,5.131638 0,3.801259 -0.428924,5.131689 -1.654413,5.131689 z M 63.757194,46.292448 c -0.606616,0 -1.102942,-2.309227 -1.102942,-5.131659 0,-4.941605 0.122547,-5.131644 3.308826,-5.131644 1.819849,0 3.30882,0.513154 3.30882,1.140352 0,0.627184 -0.992645,1.140385 -2.205878,1.140385 -1.213238,0 -2.205884,0.513165 -2.205884,1.140377 0,0.627192 0.744483,1.140342 1.654413,1.140342 0.909925,0 1.654407,0.513175 1.654407,1.140379 0,0.627216 -0.744482,1.140346 -1.654407,1.140346 -0.90993,0 -1.654413,0.769755 -1.654413,1.710586 0,0.940788 -0.496325,1.710536 -1.102942,1.710536 z"
       id="path1171"
       inkscape:connector-curvature="0" />
  </g>
</svg>
